<?xml version="1.0" standalone="no"?>
<!DOCTYPE svg PUBLIC "-//W3C//DTD SVG 20010904//EN"
 "http://www.w3.org/TR/2001/REC-SVG-20010904/DTD/svg10.dtd">
<svg version="1.0" xmlns="http://www.w3.org/2000/svg"
 width="512.000000pt" height="512.000000pt" viewBox="0 0 512.000000 512.000000"
 preserveAspectRatio="xMidYMid meet">
<metadata>
Created by potrace 1.14, written by Peter Selinger 2001-2017
</metadata>
<g transform="translate(0.000000,512.000000) scale(0.100000,-0.100000)"
fill="#000000" stroke="none">
<path d="M2730 5104 c-36 -7 -94 -23 -130 -35 -320 -106 -572 -403 -624 -735
-10 -67 -13 -75 -26 -63 -28 26 -108 89 -114 89 -3 0 -28 11 -55 24 -128 61
-312 68 -450 17 -235 -88 -391 -312 -392 -562 -1 -127 52 -275 132 -371 21
-26 39 -48 39 -51 0 -2 -15 -4 -33 -5 -123 -5 -283 -106 -338 -214 -11 -21
-27 -38 -37 -39 -9 0 -93 -1 -187 -3 -224 -4 -299 -29 -397 -134 -92 -98 -117
-178 -117 -376 0 -150 10 -210 46 -281 30 -57 95 -128 150 -163 87 -55 132
-65 311 -67 90 -2 166 -5 169 -8 3 -3 6 -176 7 -384 2 -335 4 -384 20 -427 46
-128 134 -218 261 -266 59 -23 68 -24 445 -24 l385 -1 16 -61 c21 -79 48 -137
93 -203 31 -46 35 -56 24 -72 -26 -36 -311 -375 -329 -391 -11 -9 -19 -21 -19
-26 0 -6 -3 -12 -7 -14 -5 -1 -26 -25 -48 -53 -22 -27 -45 -56 -52 -63 -21
-21 -26 -60 -13 -91 18 -45 85 -66 121 -38 15 12 395 462 452 535 39 51 44 52
91 27 43 -24 92 -41 140 -49 16 -3 31 -8 34 -11 3 -3 6 -110 7 -236 l0 -231
29 -25 c24 -20 37 -24 65 -19 19 3 44 14 55 25 19 19 20 34 20 252 l1 232 25
8 c14 4 50 15 81 23 30 9 72 27 92 40 l36 25 28 -33 c45 -52 66 -78 165 -198
51 -62 103 -124 115 -138 12 -14 58 -69 103 -123 103 -123 141 -141 194 -92
19 17 26 34 26 59 0 31 -19 58 -148 213 -82 98 -194 233 -250 299 l-101 122
29 39 c32 44 88 151 93 180 2 10 7 34 11 53 l7 35 352 -1 c194 0 376 3 406 7
123 19 242 104 303 216 43 79 55 149 54 339 l-1 171 25 -7 c21 -6 344 -113
375 -124 6 -2 13 -4 17 -5 4 -1 74 -25 155 -52 102 -35 164 -50 199 -50 70 0
146 34 190 84 64 75 64 82 64 672 l-1 530 -24 48 c-30 63 -64 98 -123 127 -86
44 -124 37 -512 -94 -190 -64 -350 -116 -355 -116 -6 0 -10 52 -10 138 1 151
-12 214 -59 295 -32 54 -98 122 -138 143 -17 9 -26 20 -22 26 4 7 3 8 -4 4 -6
-3 -39 3 -74 15 -53 18 -86 22 -205 22 -79 0 -143 3 -143 6 0 3 16 17 36 30
58 40 158 151 209 232 47 75 107 216 120 284 21 99 24 135 21 240 -5 163 -34
277 -103 410 -124 238 -354 416 -623 482 -86 21 -295 25 -380 7z m-454 -1621
c27 -24 57 -49 67 -56 15 -11 -15 -13 -182 -14 -111 0 -201 0 -201 2 0 1 9 13
21 26 52 59 96 135 123 212 5 15 17 5 65 -55 32 -40 81 -92 107 -115z"/>
</g>
</svg>
